<svg style="width: 4.5rem;" viewBox="0 0 61 73" fill="none" xmlns="http://www.w3.org/2000/svg" class="xpert_chatbot__animated_graduate"><path d="M28.7098 11.9636C29.3493 11.5582 30.1637 11.5523 30.8091 11.9482L57.7788 28.4938C59.0325 29.2629 59.0425 31.081 57.7974 31.8639L29.379 49.733C28.6963 50.1623 27.8215 50.1355 27.1663 49.6652L2.38715 31.8772C1.24528 31.0575 1.29468 29.343 2.48186 28.5904L28.7098 11.9636Z" fill="black" class="xpert_chatbot__animated_graduate__cap"></path><path fill-rule="evenodd" clip-rule="evenodd" d="M21.8201 27.1885C14.1513 27.1885 7.9346 33.4052 7.9346 41.074V50.9922C7.9346 58.6609 14.1513 64.8777 21.8201 64.8777H35.0918L37.872 70.8969C38.5813 72.4328 40.7642 72.4328 41.4736 70.8969L44.6842 63.9458C49.8764 61.9358 53.5584 56.894 53.5584 50.9922V41.074C53.5584 33.4052 47.3416 27.1885 39.6729 27.1885H21.8201Z" fill="#4AB699" class="xpert_chatbot__animated_graduate__face"></path><circle class="xpert_chatbot__animated_graduate__eyeball xpert_chatbot__animated_graduate__eyeball_blink" cx="34.7137" cy="44.0494" r="6.94275" fill="white"></circle><mask id="mask0_2271_69" maskUnits="userSpaceOnUse" x="27" y="37" width="15" height="14"><circle cx="34.7137" cy="44.0494" r="6.94275" fill="white"></circle></mask><g mask="url(#mask0_2271_69)"><circle role="img" aria-label="Left pupil that follows the mouse cursor" class="xpert_chatbot__animated_graduate__pupil xpert_chatbot__animated_graduate__pupil_blink" cx="30.7465" cy="44.0494" r="4.9591" fill="black"></circle></g><circle class="xpert_chatbot__animated_graduate__eyeball xpert_chatbot__animated_graduate__eyeball_blink" cx="18.8446" cy="44.0494" r="6.94275" fill="white"></circle><mask id="mask1_2271_69" maskUnits="userSpaceOnUse" x="11" y="37" width="15" height="14"><circle cx="18.8446" cy="44.0494" r="6.94275" fill="white"></circle></mask><g mask="url(#mask1_2271_69)"><circle role="img" aria-label="Right pupil that follows the mouse cursor" class="xpert_chatbot__animated_graduate__pupil xpert_chatbot__animated_graduate__pupil_blink" cx="14.8773" cy="44.0494" r="4.9591" fill="black"></circle></g><circle class="xpert_chatbot__animated_graduate__mouth xpert_chatbot__animated_graduate__mouth_move" cx="28.7628" cy="55.9513" r="2.97546" fill="#5DE3C0"></circle><circle class="xpert_chatbot__animated_graduate__mouth xpert_chatbot__animated_graduate__mouth_move" cx="36.6973" cy="55.9513" r="2.97546" fill="#5DE3C0"></circle><circle class="xpert_chatbot__animated_graduate__mouth xpert_chatbot__animated_graduate__mouth_move" cx="20.8282" cy="55.9513" r="2.97546" fill="#5DE3C0"></circle><path class="xpert_chatbot__animated_graduate__cap_tassel" d="M4.95914 32.6434V31.1557H1.98367V32.6434H4.95914ZM1.98367 49.5044C1.98367 50.326 2.64975 50.9921 3.47141 50.9921C4.29306 50.9921 4.95914 50.326 4.95914 49.5044H1.98367ZM1.98367 32.6434L1.98367 49.5044H4.95914L4.95914 32.6434H1.98367Z" fill="black"></path></svg>